SplineFontDB: 3.0
FontName: WP34SSegmentFont
FullName: WP34S Segment Font
FamilyName: WP34S Segment Font
Weight: Medium
Copyright: (c) 2012 The WP34S team. Covered by the GPL V3.
UComments: "2012-2-23: Created." 
Version: 001.000
ItalicAngle: 0
UnderlinePosition: -100
UnderlineWidth: 50
Ascent: 916
Descent: 84
LayerCount: 2
Layer: 0 1 "Back"  1
Layer: 1 1 "Fore"  0
NeedsXUIDChange: 1
XUID: [1021 211 1576984752 14859363]
FSType: 8
OS2Version: 0
OS2_WeightWidthSlopeOnly: 0
OS2_UseTypoMetrics: 1
CreationTime: 1330000989
ModificationTime: 1330003261
PfmFamily: 17
TTFWeight: 500
TTFWidth: 5
LineGap: 90
VLineGap: 0
OS2TypoAscent: 0
OS2TypoAOffset: 1
OS2TypoDescent: 0
OS2TypoDOffset: 1
OS2TypoLinegap: 90
OS2WinAscent: 0
OS2WinAOffset: 1
OS2WinDescent: 0
OS2WinDOffset: 1
HheadAscent: 0
HheadAOffset: 1
HheadDescent: 0
HheadDOffset: 1
OS2Vendor: 'PfEd'
MarkAttachClasses: 1
DEI: 91125
LangName: 1033 
Encoding: ISO8859-1
UnicodeInterp: none
NameList: Adobe Glyph List
DisplaySize: -48
AntiAlias: 0
FitToEm: 1
WinInfo: 0 16 17
BeginPrivate: 0
EndPrivate
BeginChars: 256 1

StartChar: D_NONE
Encoding: 240 240 0
Width: 600
VWidth: 0
Flags: 
LayerCount: 2
Fore
SplineSet
 -1 801 m 1
 -1 801 l 1
EndSplineSet
EndChar

StartChar: D_BR
Encoding: 241 241 1
Width: 0
VWidth: 0
Flags: 
LayerCount: 2
Fore
SplineSet
433 411 m 25,33,-1
 483 355 l 25,34,-1
 462 125 l 25,35,-1
 429 54 l 25,36,-1
 362 121 l 25,37,-1
 384 361 l 25,38,-1
 433 411 l 25,33,-1
EndSplineSet
EndChar

StartChar: D_BOTTOM
Encoding: 242 242 2
Width: 0
VWidth: 0
Flags: 
LayerCount: 2
Fore
SplineSet
62 34 m 25,19,-1
 138 99 l 25,20,-1
 336 99 l 25,21,-1
 407 28 l 25,22,-1
 338 0 l 25,23,-1
 136 0 l 25,24,-1
 106 10 l 25,25,-1
 62 34 l 25,19,-1
EndSplineSet
EndChar

StartChar: D_BL
Encoding: 243 243 3
Width: 0
VWidth: 0
Flags: 
LayerCount: 2
Fore
SplineSet
92 410 m 25,26,-1
 137 361 l 25,27,-1
 122 125 l 25,28,-1
 39 59 l 25,29,-1
 25 101 l 25,30,-1
 21 132 l 25,31,-1
 42 360 l 25,32,-1
 92 410 l 25,26,-1
EndSplineSet
EndChar

StartChar: D_TR
Encoding: 244 244 4
Width: 0
VWidth: 0
Flags: 
LayerCount: 2
Fore
SplineSet
492 809 m 25,51,-1
 509 761 l 25,52,-1
 513 729 l 25,53,-1
 494 501 l 25,54,-1
 438 452 l 25,55,-1
 395 501 l 25,56,-1
 415 740 l 25,57,-1
 492 809 l 25,51,-1
EndSplineSet
EndChar

StartChar: D_MIDDLE
Encoding: 245 245 5
Width: 0
VWidth: 0
Flags: 
LayerCount: 2
Fore
SplineSet
162 482 m 25,39,-1
 373 481 l 29,40,-1
 416 434 l 25,41,-1
 363 381 l 25,42,-1
 156 381 l 25,43,-1
 114 434 l 25,44,-1
 162 482 l 25,39,-1
EndSplineSet
EndChar

StartChar: D_TL
Encoding: 246 246 6
Width: 0
VWidth: 0
Flags: 
LayerCount: 2
Fore
SplineSet
102 809 m 25,45,-1
 173 732 l 25,46,-1
 152 514 l 25,47,-1
 96 458 l 25,48,-1
 53 509 l 25,49,-1
 74 746 l 25,50,-1
 102 809 l 25,45,-1
EndSplineSet
EndChar

StartChar: D_TOP
Encoding: 247 247 7
Width: 0
VWidth: 0
Flags: 
LayerCount: 2
Fore
SplineSet
470 830 m 25,58,-1
 395 764 l 25,59,-1
 187 764 l 25,60,-1
 123 836 l 25,61,-1
 200 858 l 25,62,-1
 391 858 l 25,63,64
 429 853 l 25,65,-1
 470 830 l 25,58,-1
EndSplineSet
EndChar

StartChar: D_DOT
Encoding: 248 248 8
Width: 0
VWidth: 0
LayerCount: 2
Fore
SplineSet
527 54 m 25,8,-1
 557 42 l 25,9,-1
 567 15 l 25,10,-1
 555 -14 l 25,11,-1
 525 -24 l 25,12,-1
 495 -13 l 25,13,-1
 482 14 l 25,14,-1
 496 43 l 25,15,-1
 527 54 l 25,8,-1
EndSplineSet
Validated: 1
EndChar

StartChar: D_COMMA
Encoding: 249 249 9
Width: 0
VWidth: 0
LayerCount: 2
Fore
SplineSet
478 -62 m 25,0,-1
 496 -43 l 25,1,-1
 505 -20 l 25,2,-1
 525 -28 l 25,3,-1
 551 -19 l 25,4,-1
 550 -32 l 25,5,-1
 512 -68 l 25,6,-1
 478 -68 l 25,7,-1
 478 -62 l 25,0,-1
EndSplineSet
Validated: 1
EndChar

StartChar: All_Segments
Encoding: 255 255 10
Width: 600
VWidth: 0
Flags: HO
LayerCount: 2
Fore
SplineSet
478 -62 m 25,0,-1
 496 -43 l 25,1,-1
 505 -20 l 25,2,-1
 525 -28 l 25,3,-1
 551 -19 l 25,4,-1
 550 -32 l 25,5,-1
 512 -68 l 25,6,-1
 478 -68 l 25,7,-1
 478 -62 l 25,0,-1
527 54 m 25,8,-1
 557 42 l 25,9,-1
 567 15 l 25,10,-1
 555 -14 l 25,11,-1
 525 -24 l 25,12,-1
 495 -13 l 25,13,-1
 482 14 l 25,14,-1
 496 43 l 25,15,-1
 527 54 l 25,8,-1
62 34 m 25,16,-1
 138 99 l 25,17,-1
 336 99 l 25,18,-1
 407 28 l 25,19,-1
 338 0 l 25,20,-1
 136 0 l 25,21,-1
 106 10 l 25,22,-1
 62 34 l 25,16,-1
92 410 m 25,23,-1
 137 361 l 25,24,-1
 122 125 l 25,25,-1
 39 59 l 25,26,-1
 25 101 l 25,27,-1
 21 132 l 25,28,-1
 42 360 l 25,29,-1
 92 410 l 25,23,-1
433 411 m 25,30,-1
 483 355 l 25,31,-1
 462 125 l 25,32,-1
 429 54 l 25,33,-1
 362 121 l 25,34,-1
 384 361 l 25,35,-1
 433 411 l 25,30,-1
162 482 m 25,36,-1
 373 481 l 25,37,-1
 416 434 l 25,38,-1
 363 381 l 25,39,-1
 156 381 l 25,40,-1
 114 434 l 25,41,-1
 162 482 l 25,36,-1
102 809 m 25,42,-1
 173 732 l 25,43,-1
 152 514 l 25,44,-1
 96 458 l 25,45,-1
 53 509 l 25,46,-1
 74 746 l 25,47,-1
 102 809 l 25,42,-1
492 809 m 25,48,-1
 509 761 l 25,49,-1
 513 729 l 25,50,-1
 494 501 l 25,51,-1
 438 452 l 25,52,-1
 395 501 l 25,53,-1
 415 740 l 25,54,-1
 492 809 l 25,48,-1
470 830 m 25,55,-1
 395 764 l 25,56,-1
 187 764 l 25,57,-1
 123 836 l 25,58,-1
 200 858 l 25,59,-1
 391 858 l 25,60,-1
 429 853 l 25,61,-1
 470 830 l 25,55,-1
EndSplineSet
EndChar

StartChar: A_SHIFT
Encoding: 224 224 113
Width: 150
VWidth: 0
Flags: W
LayerCount: 2
Fore
SplineSet
16 80 m 25,0,-1
 52 80 l 25,1,-1
 52 267 l 25,2,-1
 98 267 l 25,3,-1
 97 80 l 25,4,-1
 133 81 l 25,5,-1
 71 0 l 25,6,-1
 16 80 l 25,0,-1
EndSplineSet
Validated: 1
EndChar

StartChar: A_INPUT
Encoding: 225 225 114
Width: 934
VWidth: 0
Flags: W
LayerCount: 2
Fore
SplineSet
396 181 m 25,0,-1
 396 122 l 25,1,-1
 437 122 l 18,2,3
 446 123 446 123 452 133 c 24,4,5
 458 144 458 144 458 149 c 24,6,7
 458 162 458 162 456 167 c 24,8,9
 452 178 452 178 441 181 c 25,10,-1
 396 181 l 25,0,-1
794 0 m 25,11,-1
 793 169 l 25,12,-1
 742 169 l 25,13,-1
 741 232 l 25,14,-1
 913 233 l 25,15,-1
 914 170 l 25,16,-1
 860 169 l 25,17,-1
 860 0 l 25,18,-1
 794 0 l 25,11,-1
597 79 m 1,19,20
 597 70 597 70 604 63 c 152,-1,21
 611 56 611 56 622 54 c 152,-1,22
 633 52 633 52 641 56 c 24,23,24
 651 61 651 61 655 69 c 1,25,-1
 658 81 l 25,26,-1
 658 233 l 25,27,-1
 716 233 l 25,28,-1
 716 59 l 18,29,30
 716 56 716 56 708 37 c 1,31,32
 696 19 696 19 696 19 c 24,33,34
 688 8 688 8 675 3 c 24,35,36
 656 -4 656 -4 644 -6 c 16,37,38
 639 -7 639 -7 631 -7 c 128,-1,39
 623 -7 623 -7 612 -6 c 8,40,41
 598 -5 598 -5 584 2 c 24,42,43
 569 9 569 9 557 21 c 24,44,45
 539 38 539 38 539 48 c 26,46,-1
 538 232 l 25,47,-1
 596 232 l 17,48,49
 596 137 596 137 597 79 c 1,19,20
333 -1 m 25,50,-1
 333 234 l 25,51,-1
 451 236 l 26,52,53
 461 235 461 235 478 222 c 24,54,55
 497 207 497 207 501 198 c 24,56,57
 506 185 506 185 508 168 c 24,58,59
 509 154 509 154 506 138 c 152,-1,60
 503 122 503 122 498 112 c 24,61,62
 492 99 492 99 486 94 c 24,63,64
 471 82 471 82 463 79 c 24,65,66
 448 73 448 73 438 72 c 16,67,68
 416.857 69.7143 416.857 69.7143 406.816 69.7143 c 0,69,70
 399.286 69.7143 399.286 69.7143 398 71 c 9,71,-1
 397 0 l 25,72,-1
 333 -1 l 25,50,-1
111 -1 m 25,73,-1
 112 233 l 25,74,-1
 176 233 l 25,75,-1
 235 98 l 25,76,-1
 235 234 l 25,77,-1
 300 234 l 25,78,-1
 300 -1 l 25,79,-1
 234 -1 l 25,80,-1
 175 123 l 25,81,-1
 175 -2 l 25,82,-1
 111 -1 l 25,73,-1
15 0 m 25,83,-1
 16 233 l 25,84,-1
 71 232 l 25,85,-1
 71 0 l 25,86,-1
 15 0 l 25,83,-1
EndSplineSet
Validated: 1
EndChar

StartChar: A_LITTLE_EQUALS
Encoding: 226 226 115
Width: 248
VWidth: 0
Flags: W
LayerCount: 2
Fore
SplineSet
15 92 m 25,0,-1
 229 92 l 25,1,-1
 230 34 l 25,2,-1
 15 32 l 25,3,-1
 15 92 l 25,0,-1
16 188 m 25,4,-1
 229 188 l 25,5,-1
 230 130 l 25,6,-1
 16 130 l 25,7,-1
 16 188 l 25,4,-1
EndSplineSet
Validated: 1
EndChar

StartChar: A_BATTERY
Encoding: 227 227 116
Width: 557
VWidth: 0
Flags: W
LayerCount: 2
Fore
SplineSet
26 0 m 25,0,-1
 26 238 l 25,1,-1
 456 240 l 25,2,-1
 457 174 l 25,3,-1
 529 174 l 25,4,-1
 529 66 l 25,5,-1
 457 66 l 25,6,-1
 457 0 l 25,7,-1
 26 0 l 25,0,-1
EndSplineSet
Validated: 1
EndChar

StartChar: A_BEG
Encoding: 228 228 117
Width: 626
VWidth: 0
Flags: W
LayerCount: 2
Fore
SplineSet
544 80 m 25,0,-1
 512 82 l 25,1,-1
 512 134 l 25,2,-1
 604 132 l 25,3,-1
 603 4 l 25,4,-1
 564 4 l 25,5,-1
 551 22 l 25,6,-1
 537 8 l 24,7,8
 513 -3 513 -3 499 -4 c 16,9,10
 497.9 -4.1 497.9 -4.1 496.71 -4.1 c 0,11,12
 486 -4.1 486 -4.1 468 4 c 8,13,14
 452 11 452 11 436 28 c 24,15,16
 422 43 422 43 418 56 c 24,17,18
 412 73 412 73 410 94 c 16,19,20
 409.5 98 409.5 98 409.5 107 c 128,-1,21
 409.5 116 409.5 116 410 130 c 8,22,23
 411 150 411 150 414 170 c 24,24,25
 414 172 414 172 430 200 c 24,26,27
 438 214 438 214 450 222 c 24,28,29
 454 225 454 225 473 232 c 24,30,31
 482 235 482 235 500 238 c 16,32,33
 503.5 238.5 503.5 238.5 507.5 238.5 c 0,34,35
 519.5 238.5 519.5 238.5 536 234 c 8,36,37
 547 231 547 231 559 224 c 24,38,39
 564 222 564 222 576 208 c 24,40,41
 584 199 584 199 588 188 c 24,42,43
 593 175 593 175 595 170 c 24,44,45
 601 155 601 155 598 154 c 25,46,-1
 545 154 l 17,47,48
 540 168 540 168 540 168 c 24,49,50
 542 173 542 173 524 178 c 24,51,52
 512 182 512 182 500 178 c 24,53,54
 486 174 486 174 479 164 c 24,55,56
 471 153 471 153 468 140 c 24,57,58
 465 128 465 128 467 110 c 24,59,60
 469 90 469 90 474 80 c 24,61,62
 482 64 482 64 490 60 c 24,63,64
 503 54 503 54 520 58 c 24,65,66
 537 61 537 61 539.85 70.5 c 24,67,68
 541.636 76 541.636 76 544 80 c 25,0,-1
222.85 0.5 m 25,69,-1
 222.85 239.5 l 25,70,-1
 383.85 240.5 l 25,71,-1
 383.85 183.5 l 25,72,-1
 285.85 182.5 l 25,73,-1
 285.85 154.5 l 25,74,-1
 369.85 155.5 l 25,75,-1
 369.85 93.5 l 25,76,-1
 285.85 94.5 l 25,77,-1
 285.85 54.5 l 25,78,-1
 381.85 53.5 l 25,79,-1
 382.85 2.5 l 25,80,-1
 222.85 0.5 l 25,69,-1
75.8496 193.5 m 25,81,-1
 75.8496 132.5 l 25,82,-1
 118.85 134.5 l 25,83,84
 121.85 134.5 121.85 134.5 124.85 136.5 c 24,85,86
 129.85 141.5 129.85 141.5 131.85 144.5 c 152,-1,87
 133.85 147.5 133.85 147.5 135.85 156.5 c 24,88,89
 136.85 162.5 136.85 162.5 135.85 170.5 c 24,90,91
 134.85 176.5 134.85 176.5 131.85 180.5 c 24,92,93
 129.85 183.5 129.85 183.5 121.85 188.5 c 24,94,95
 115.85 192.5 115.85 192.5 113.85 192.5 c 25,96,-1
 75.8496 193.5 l 25,81,-1
116.85 106.5 m 1,97,98
 82.8496 106.5 82.8496 106.5 75.8496 106.5 c 25,99,-1
 75.8496 47.5 l 25,100,-1
 121.85 48.5 l 25,101,102
 125.85 48.5 125.85 48.5 132.35 54.5 c 152,-1,103
 138.85 60.5 138.85 60.5 139.85 64.5 c 24,104,105
 144.85 74.5 144.85 74.5 143.85 80.5 c 24,106,107
 141.85 93.5 141.85 93.5 135.85 98.5 c 24,108,109
 127.85 107.5 127.85 107.5 116.85 106.5 c 1,97,98
15.8496 2.5 m 25,110,-1
 15.8496 238.5 l 25,111,-1
 135.85 238.5 l 25,112,113
 149.85 237.5 149.85 237.5 164.85 227.5 c 24,114,115
 170.85 223.5 170.85 223.5 181.85 206.5 c 24,116,117
 186.85 200.5 186.85 200.5 187.85 193.5 c 24,118,119
 189.85 175.5 189.85 175.5 187.85 164.5 c 24,120,121
 184.85 146.5 184.85 146.5 177.85 144.5 c 9,122,123
 168.85 128.5 168.85 128.5 165.85 128.5 c 24,124,-1
 183.85 110.5 l 24,125,126
 188.85 103.5 188.85 103.5 191.85 88.5 c 24,127,128
 192.85 75.5 192.85 75.5 190.85 64.5 c 24,129,130
 188.85 55.5 188.85 55.5 183.85 42.5 c 24,131,132
 177.85 27.5 177.85 27.5 175.85 24.5 c 24,133,134
 162.85 9.5 162.85 9.5 156.85 10.5 c 8,135,-1
 147.85 4.5 l 25,136,-1
 15.8496 2.5 l 25,110,-1
EndSplineSet
Validated: 1
EndChar

StartChar: A_STO
Encoding: 229 229 118
Width: 626
VWidth: 0
Flags: W
LayerCount: 2
Fore
SplineSet
506 56 m 128,-1,1
 520 56 520 56 532 66 c 24,2,3
 538 71 538 71 543 88 c 24,4,5
 547 101 547 101 548 112 c 24,6,7
 549 124 549 124 545 142 c 24,8,9
 541 161 541 161 539 164 c 24,10,11
 532 175 532 175 520 180 c 24,12,13
 513 183 513 183 500 180 c 24,14,15
 486 176 486 176 481 170 c 24,16,17
 477 165 477 165 471 146 c 24,18,19
 466 131 466 131 466 122 c 24,20,21
 466 107 466 107 468 96 c 24,22,23
 471 76 471 76 477.85 69.5 c 24,24,0
 492.077 56 492.077 56 506 56 c 128,-1,1
407.85 85.5 m 24,25,26
 405.85 101.5 405.85 101.5 406.85 112.5 c 24,27,28
 408.85 135.5 408.85 135.5 409.85 139.5 c 24,29,30
 411.85 149.5 411.85 149.5 417.85 169.5 c 24,31,32
 424.85 191.5 424.85 191.5 425.85 193.5 c 24,33,34
 428.85 199.5 428.85 199.5 441.85 215.5 c 24,35,36
 451.85 226.5 451.85 226.5 459.85 232.5 c 24,37,38
 464.85 236.5 464.85 236.5 480.85 241.5 c 24,39,40
 498.85 247.5 498.85 247.5 503.85 247.5 c 24,41,42
 505.85 248.5 505.85 248.5 529.85 241.5 c 24,43,44
 547.85 236.5 547.85 236.5 551.85 233.5 c 24,45,46
 564.85 225.5 564.85 225.5 572.85 217.5 c 24,47,48
 575.85 214.5 575.85 214.5 587.85 200.5 c 24,49,50
 592.85 194.5 592.85 194.5 599.85 177.5 c 24,51,52
 607.85 154.5 607.85 154.5 607.85 151.5 c 24,53,54
 607.85 127.5 607.85 127.5 607.85 127.5 c 24,55,56
 607.85 119.5 607.85 119.5 603.85 97.5 c 24,57,58
 598.85 68.5 598.85 68.5 595.85 61.5 c 24,59,60
 590.85 47.5 590.85 47.5 585.85 39.5 c 24,61,62
 581.85 32.5 581.85 32.5 575.85 26.5 c 24,63,64
 571.85 22.5 571.85 22.5 557.85 15.5 c 152,-1,65
 543.85 8.5 543.85 8.5 535.85 5.5 c 152,-1,66
 527.85 2.5 527.85 2.5 507.85 2.5 c 24,67,68
 488.85 2.5 488.85 2.5 477.85 5.5 c 152,-1,69
 466.85 8.5 466.85 8.5 449.85 17.5 c 24,70,71
 437.85 24.5 437.85 24.5 430.85 31.5 c 24,72,73
 418.85 43.5 418.85 43.5 413.85 55.5 c 24,74,75
 409.85 65.5 409.85 65.5 407.85 85.5 c 24,25,26
213.85 240.5 m 25,76,-1
 394.85 241.5 l 25,77,-1
 394.85 171.5 l 25,78,-1
 337.85 170.5 l 25,79,-1
 337.85 1.5 l 25,80,-1
 273.85 1.5 l 25,81,-1
 271.85 174.5 l 25,82,-1
 213.85 173.5 l 25,83,-1
 213.85 240.5 l 25,76,-1
20.8496 75.5 m 25,84,-1
 87.8496 76.5 l 17,85,86
 93.6108 67.2249 93.6108 67.2249 97.8496 64.5 c 24,87,88
 103.614 60.7942 103.614 60.7942 115.85 58.5 c 24,89,90
 124.513 56.8757 124.513 56.8757 129.85 58.5 c 24,91,92
 137.34 60.7796 137.34 60.7796 138.85 65.5 c 24,93,94
 141.182 72.7913 141.182 72.7913 136.4 78.9795 c 24,95,96
 133.457 82.7881 133.457 82.7881 121.85 87.5 c 24,97,-1
 85.8496 99.5 l 24,98,99
 67.8072 107.957 67.8072 107.957 57.8496 117.5 c 24,100,101
 45.8 129.048 45.8 129.048 37.8496 145.5 c 16,102,103
 29.7496 162.262 29.7496 162.262 29.7496 175.65 c 0,104,105
 29.7496 178.224 29.7496 178.224 29.8496 178.5 c 8,106,107
 37.7204 200.203 37.7204 200.203 39.8496 203.5 c 24,108,109
 48.9304 217.561 48.9304 217.561 60.8496 226.5 c 24,110,111
 71.1841 234.251 71.1841 234.251 87.8496 239.5 c 16,112,113
 99.1885 243.071 99.1885 243.071 113.462 243.071 c 0,114,115
 121.109 243.071 121.109 243.071 122.85 242.5 c 8,116,117
 143.942 235.576 143.942 235.576 157.85 228.5 c 24,118,119
 173.886 220.342 173.886 220.342 179.85 213.5 c 24,120,121
 184.285 208.413 184.285 208.413 191.85 189.5 c 24,122,123
 198.01 174.1 198.01 174.1 195.85 173.5 c 25,124,-1
 137.85 174.5 l 17,125,126
 135.9 176.979 135.9 176.979 131.85 181.5 c 0,127,128
 127.137 187.207 127.137 187.207 121.85 189.5 c 24,129,130
 114.47 192.701 114.47 192.701 109.458 191.212 c 24,131,132
 104.677 189.792 104.677 189.792 99.9004 182.979 c 24,133,134
 95.3505 176.49 95.3505 176.49 95.5965 171.443 c 24,135,136
 95.7841 167.594 95.7841 167.594 100.85 163.5 c 24,137,138
 101.842 162.698 101.842 162.698 112.85 157.5 c 24,139,140
 131.646 148.624 131.646 148.624 136.85 146.5 c 24,141,142
 140.656 144.947 140.656 144.947 161.85 137.5 c 24,143,144
 169.66 134.315 169.66 134.315 174.9 130.979 c 24,145,146
 178.636 128.602 178.636 128.602 183.85 123.5 c 24,147,148
 193.222 114.329 193.222 114.329 196.85 109.5 c 24,149,150
 202.41 102.099 202.41 102.099 203.4 97.4795 c 24,151,152
 204.553 92.0988 204.553 92.0988 202.85 81.5 c 24,153,154
 199.529 60.8362 199.529 60.8362 195.85 50.5 c 24,155,156
 188.634 30.226 188.634 30.226 181.85 22.5 c 24,157,158
 176.074 15.9221 176.074 15.9221 159.85 9.5 c 24,159,160
 153.603 7.0274 153.603 7.0274 133.85 3.5 c 24,161,162
 109.251 -0.892763 109.251 -0.892763 103.85 -0.5 c 24,163,164
 94.9568 0.146773 94.9568 0.146773 78.8496 7.5 c 24,165,166
 67.4832 12.689 67.4832 12.689 57.8496 20.5 c 24,167,168
 51.3805 25.7452 51.3805 25.7452 41.8496 37.5 c 24,169,170
 32.5934 48.916 32.5934 48.916 27.8496 57.5 c 24,171,-1
 20.8496 75.5 l 25,84,-1
EndSplineSet
Validated: 1
EndChar

StartChar: A_RCL
Encoding: 230 230 119
Width: 613
VWidth: 0
Flags: W
LayerCount: 2
Fore
SplineSet
435 235 m 25,0,-1
 506 235 l 25,1,-1
 506 68 l 25,2,-1
 590 69 l 25,3,-1
 591 0 l 25,4,-1
 435 0 l 25,5,-1
 435 235 l 25,0,-1
219 114 m 24,6,7
 221 146 221 146 225 161 c 24,8,9
 230 179 230 179 242.85 196 c 24,10,11
 252.499 209 252.499 209 269.85 220 c 24,12,13
 278.693 225.568 278.693 225.568 296.85 230 c 16,14,15
 307.774 232.667 307.774 232.667 321.739 232.667 c 0,16,17
 328.501 232.667 328.501 232.667 330.85 232 c 8,18,19
 356.24 224.795 356.24 224.795 362.85 221 c 24,20,21
 371.63 215.96 371.63 215.96 384.85 201 c 24,22,23
 395.029 189.481 395.029 189.481 400.85 178 c 16,24,25
 412.1 155.81 412.1 155.81 412.1 147.25 c 0,26,27
 412.1 144.75 412.1 144.75 410.85 144 c 9,28,-1
 350.85 144 l 17,29,30
 350.85 154.364 350.85 154.364 344.85 162 c 24,31,32
 338.156 170.519 338.156 170.519 328.85 172 c 24,33,34
 311.363 174.782 311.363 174.782 300.85 169 c 24,35,36
 295.124 165.851 295.124 165.851 288.85 150 c 24,37,38
 283.598 136.732 283.598 136.732 281.85 121 c 24,39,40
 280.762 111.21 280.762 111.21 282.85 96 c 24,41,42
 285.288 78.237 285.288 78.237 288.85 70 c 24,43,44
 290.736 65.6388 290.736 65.6388 298.85 59 c 24,45,46
 306.183 53 306.183 53 310.85 52 c 24,47,48
 319.069 50.2389 319.069 50.2389 326.85 53 c 24,49,50
 335.098 55.9268 335.098 55.9268 341.85 63 c 24,51,52
 344.392 65.6628 344.392 65.6628 347.85 75 c 24,53,-1
 351.85 90 l 25,54,-1
 412.85 90 l 17,55,56
 414.85 89 414.85 89 414.85 84.4444 c 0,57,58
 414.85 74.5778 414.85 74.5778 406.85 52 c 8,59,60
 401.477 36.8358 401.477 36.8358 394.85 28 c 152,-1,61
 388.139 19.0514 388.139 19.0514 376.85 12 c 24,62,63
 366.799 5.72191 366.799 5.72191 354.811 2.98943 c 24,64,65
 346.738 1.14955 346.738 1.14955 324.2 0 c 24,66,67
 303.215 -1.07034 303.215 -1.07034 296.2 0 c 24,68,69
 279.952 2.47911 279.952 2.47911 268.537 8.49317 c 24,70,71
 256.147 15.0211 256.147 15.0211 246.85 26 c 24,72,73
 238.864 35.4313 238.864 35.4313 230.85 53 c 24,74,75
 223.583 68.9314 223.583 68.9314 220.792 82.9658 c 24,76,77
 217.952 97.2391 217.952 97.2391 219 114 c 24,6,7
75.8496 122 m 25,78,-1
 118.85 122 l 25,79,80
 125.85 122 125.85 122 126.85 123 c 24,81,82
 133.85 128 133.85 128 136.85 134 c 24,83,84
 140.85 143 140.85 143 140.85 154 c 152,-1,85
 140.85 165 140.85 165 137.85 170 c 152,-1,86
 134.85 175 134.85 175 124.85 182 c 24,87,88
 123.85 184 123.85 184 118.85 184 c 25,89,-1
 74.8496 182 l 25,90,-1
 75.8496 122 l 25,78,-1
17.8496 0 m 25,91,-1
 18.8496 235 l 25,92,-1
 136.85 235 l 25,93,94
 142.212 234.876 142.212 234.876 148.85 232 c 24,95,96
 161.95 226.323 161.95 226.323 166.85 222 c 24,97,98
 176.07 213.864 176.07 213.864 182.85 202 c 24,99,100
 189.072 191.111 189.072 191.111 190.85 180 c 24,101,102
 193.295 164.716 193.295 164.716 190.85 152 c 24,103,104
 188.533 139.951 188.533 139.951 180.85 128 c 24,105,106
 169.828 110.854 169.828 110.854 163.85 110 c 25,107,-1
 182.85 94 l 24,108,109
 184.253 91.5173 184.253 91.5173 189.85 64 c 24,110,111
 195.489 36.2771 195.489 36.2771 194.85 35 c 24,112,-1
 203.2 0 l 25,113,-1
 135.2 0 l 25,114,115
 134.836 0.134735 134.836 0.134735 132.85 26 c 144,-1,116
 130.85 52.0525 130.85 52.0525 130.85 56.6667 c 0,117,118
 130.85 60.6667 130.85 60.6667 131.35 61 c 8,119,120
 129.554 66.508 129.554 66.508 125.85 72 c 24,121,122
 119.972 80.7162 119.972 80.7162 116.85 82.5 c 24,123,124
 114.024 84.1147 114.024 84.1147 104.85 84 c 24,125,126
 77.3821 83.6567 77.3821 83.6567 76.8496 82 c 25,127,-1
 77.8496 0 l 25,128,-1
 17.8496 0 l 25,91,-1
EndSplineSet
Validated: 1
EndChar

StartChar: A_RAD
Encoding: 231 231 120
Width: 622
VWidth: 0
Flags: W
LayerCount: 2
Fore
SplineSet
506 40 m 25,0,-1
 522 40 l 25,1,2
 531 44 531 44 532 48 c 0,3,4
 533 56 533 56 533 178 c 24,5,6
 533 183 533 183 528 188 c 24,7,8
 526 190 526 190 519 192 c 24,9,10
 507 196 507 196 506 194 c 25,11,-1
 506 40 l 25,0,-1
433.8 0 m 25,12,-1
 434 232 l 25,13,-1
 547.3 232 l 25,14,15
 556.786 231.75 556.786 231.75 566.8 228.5 c 24,16,17
 571.672 226.919 571.672 226.919 581.087 221.034 c 24,18,19
 587.634 216.942 587.634 216.942 590 214 c 24,20,21
 593.961 209.074 593.961 209.074 598 200 c 24,22,23
 603.661 187.284 603.661 187.284 603.8 183 c 1,24,25
 603.3 122 603.3 122 603 46 c 1,26,27
 602.773 39.9324 602.773 39.9324 598 28 c 24,28,29
 594.457 19.1429 594.457 19.1429 591 16 c 152,-1,30
 587.499 12.817 587.499 12.817 576 8 c 24,31,32
 558.939 0.852778 558.939 0.852778 554 0.5 c 0,33,34
 547 0 547 0 433.8 0 c 25,12,-1
290 80 m 25,35,-1
 325 80 l 25,36,-1
 304 178 l 25,37,-1
 290 80 l 25,35,-1
212 0 m 25,38,-1
 246 230 l 25,39,-1
 356 230 l 25,40,-1
 404 0 l 25,41,-1
 331 0 l 25,42,-1
 324 42 l 25,43,-1
 290.3 42 l 25,44,-1
 284 0 l 25,45,-1
 212 0 l 25,38,-1
87 136 m 25,46,-1
 105 138 l 25,47,-1
 114 142 l 24,48,-1
 117 150 l 24,49,-1
 117 176 l 24,50,-1
 113 186 l 24,51,-1
 105 194 l 24,52,-1
 87 194 l 25,53,-1
 87 136 l 25,46,-1
18 230 m 25,54,-1
 142 230 l 25,55,56
 150 230 150 230 154 228 c 24,57,58
 163 223 163 223 168 218 c 24,59,60
 174 211 174 211 180 198 c 24,61,62
 185 187 185 187 186 178 c 24,63,64
 187 167 187 167 185 156 c 24,65,66
 184 150 184 150 176 137 c 24,67,68
 172 130 172 130 167 126 c 24,69,70
 158 119 158 119 153 117 c 25,71,-1
 170 113 l 24,72,73
 178 108 178 108 184 100 c 24,74,75
 186 97 186 97 186 88 c 16,76,77
 188.25 23.5 188.25 23.5 188.25 6.25 c 0,78,79
 188.25 0.5 188.25 0.5 188 0 c 9,80,-1
 114 0 l 25,81,-1
 114 90 l 25,82,83
 114 96 114 96 110 102 c 24,84,85
 108 105 108 105 103 106 c 24,86,87
 90 109 90 109 90 106 c 25,88,-1
 88 0 l 25,89,-1
 18 0 l 25,90,-1
 18 230 l 25,54,-1
EndSplineSet
Validated: 1
EndChar

StartChar: A_360
Encoding: 232 232 121
Width: 641
VWidth: 0
Flags: HW
LayerCount: 2
Fore
SplineSet
518 184 m 25,0,-1
 517 46 l 25,1,2
 517 44 517 44 523 39 c 152,-1,3
 529 34 529 34 533 34 c 24,4,5
 536 34 536 34 542 40 c 24,6,7
 546 44 546 44 546 48 c 25,8,-1
 546 182 l 25,9,10
 546 192 546 192 540 196 c 24,11,12
 537 198 537 198 531 198 c 24,13,14
 526 199 526 199 522 194.5 c 152,-1,15
 518 190 518 190 518 184 c 25,0,-1
448 44 m 25,16,-1
 447 182 l 25,17,18
 447 198 447 198 452 204 c 24,19,20
 463 218 463 218 477 226 c 24,21,22
 493 235 493 235 509 236 c 0,23,24
 536 237 536 237 536 238 c 0,25,26
 536 237 536 237 556 237 c 0,27,28
 567 237 567 237 586 226 c 8,29,30
 598 220 598 220 606 210 c 24,31,32
 610 205 610 205 615 194 c 24,33,34
 617 189 617 189 617 184 c 25,35,-1
 616 44 l 25,36,37
 616 36 616 36 611 28 c 24,38,39
 602 13 602 13 596 10 c 24,40,41
 578 0 578 0 561 0 c 0,42,43
 551 0 551 0 541 0 c 128,-1,44
 531 0 531 0 520 0 c 8,45,46
 501 0 501 0 484 6 c 24,47,48
 464 13 464 13 454 24 c 24,49,50
 449 30 449 30 448 44 c 25,16,-1
316 35 m 0,51,52
 322 34 322 34 324 36 c 24,53,54
 330 42 330 42 330 44 c 16,55,56
 332 55 332 55 332 79 c 0,57,58
 332 100 332 100 330 108 c 8,59,60
 328 114 328 114 322 120 c 24,61,62
 320 122 320 122 315 120 c 152,-1,63
 310 118 310 118 308 114 c 24,64,65
 304 107 304 107 304 102 c 16,66,67
 304 82 304 82 304 69 c 128,-1,68
 304 56 304 56 304 50 c 8,69,70
 305 44 305 44 307.425 40.75 c 24,71,72
 311.715 35 311.715 35 316 35 c 0,51,52
231.85 52.5 m 16,73,74
 228.35 67.7445 228.35 67.7445 228.35 120.5 c 0,75,76
 228.35 162.1 228.35 162.1 231.85 178.5 c 8,77,78
 233.8 187.639 233.8 187.639 245.85 202.5 c 24,79,80
 249.084 206.489 249.084 206.489 261.85 215.5 c 152,-1,81
 274.739 224.598 274.739 224.598 279.85 226.5 c 24,82,83
 288.554 229.739 288.554 229.739 304.85 231.5 c 24,84,85
 318.796 233.007 318.796 233.007 334.9 232.45 c 24,86,87
 355.796 231.727 355.796 231.727 363.375 229.475 c 24,88,89
 369.415 227.681 369.415 227.681 381.85 218.5 c 24,90,91
 391.107 211.666 391.107 211.666 395.85 205.5 c 152,-1,92
 400.703 199.191 400.703 199.191 401.85 192.5 c 24,93,94
 405.429 171.625 405.429 171.625 401.85 170.5 c 25,95,-1
 331.85 170.5 l 17,96,97
 331.85 181.167 331.85 181.167 329.85 186.5 c 24,98,99
 328.074 191.235 328.074 191.235 322.85 194.5 c 24,100,101
 317.425 197.89 317.425 197.89 313.85 196.5 c 24,102,103
 306.015 193.453 306.015 193.453 304.85 187.5 c 16,104,105
 304.508 185.753 304.508 185.753 304.508 176.503 c 128,-1,106
 304.508 167.253 304.508 167.253 304.85 150.5 c 8,107,108
 305.095 138.5 305.095 138.5 305.85 138.5 c 25,109,-1
 320.85 150.5 l 24,110,111
 328.039 152.896 328.039 152.896 347.85 152.5 c 24,112,113
 363.316 152.191 363.316 152.191 370.85 149.5 c 24,114,115
 382.863 145.21 382.863 145.21 389.85 137.5 c 24,116,117
 397.44 129.125 397.44 129.125 399.85 117.5 c 16,118,119
 404.773 93.7553 404.773 93.7553 404.773 65.5237 c 0,120,121
 404.773 41.4821 404.773 41.4821 402.85 36.5 c 8,122,123
 398.951 26.3984 398.951 26.3984 385.85 16.5 c 24,124,125
 371.211 5.43942 371.211 5.43942 357.85 2.5 c 16,126,127
 346.486 0 346.486 0 310.85 0 c 1,128,129
 282.517 3.8147e-06 282.517 3.8147e-06 275.85 2.5 c 8,130,131
 264.805 6.64179 264.805 6.64179 250.85 22.5 c 24,132,133
 234.462 41.1225 234.462 41.1225 231.85 52.5 c 16,73,74
15.8496 157.5 m 25,134,-1
 15.8496 189.5 l 25,135,136
 16.8496 197.5 16.8496 197.5 27.8496 210.5 c 24,137,138
 34.8496 219.5 34.8496 219.5 43.3496 225 c 152,-1,139
 51.8496 230.5 51.8496 230.5 65.8496 234.5 c 24,140,141
 76.8496 236.5 76.8496 236.5 92.8496 236.5 c 24,142,143
 111.85 236.5 111.85 236.5 123.85 234.5 c 24,144,145
 136.85 232.5 136.85 232.5 148.85 226.5 c 24,146,147
 166.85 217.5 166.85 217.5 173.85 210.5 c 24,148,149
 178.85 205.5 178.85 205.5 185.85 188.5 c 24,150,151
 188.85 181.5 188.85 181.5 187.85 170.5 c 24,152,153
 186.85 153.5 186.85 153.5 185.85 152.5 c 24,154,155
 179.983 146.633 179.983 146.633 173.85 142.5 c 0,156,157
 160 133.167 160 133.167 159.85 132.5 c 25,158,-1
 173.85 120.5 l 24,159,160
 186.85 108.5 186.85 108.5 187.85 106.5 c 24,161,162
 191.85 103.5 191.85 103.5 191.85 90.5 c 24,163,164
 191.85 82.5 191.85 82.5 189.85 64.5 c 24,165,166
 188.85 45.5 188.85 45.5 187.85 42.5 c 24,167,168
 182.85 28.5 182.85 28.5 177.85 22.5 c 24,169,170
 171.85 15.5 171.85 15.5 161.85 9.5 c 152,-1,171
 151.85 3.5 151.85 3.5 141.85 2.5 c 16,172,173
 115.35 1 115.35 1 96.3497 1 c 128,-1,174
 77.3496 1 77.3496 1 65.8496 2.5 c 8,175,176
 57.8496 3.5 57.8496 3.5 43.8496 12.5 c 24,177,178
 35.8496 17.5 35.8496 17.5 28.8496 26.5 c 24,179,180
 21.8496 34.5 21.8496 34.5 20.8496 39.5 c 16,181,182
 14.6188 69.9615 14.6188 69.9615 14.6188 84.1272 c 0,183,184
 14.6188 90.4231 14.6188 90.4231 15.8496 93.5 c 9,185,-1
 87.8496 93.5 l 25,186,-1
 89.8496 50.5 l 25,187,188
 90.8496 42.5 90.8496 42.5 93.8496 38.5 c 24,189,190
 97.8496 33.5 97.8496 33.5 105.85 34.5 c 152,-1,191
 113.85 35.5 113.85 35.5 117.85 40.5 c 152,-1,192
 121.85 45.5 121.85 45.5 122.85 54.5 c 24,193,194
 123.85 60.5 123.85 60.5 123.85 80.5 c 24,195,196
 123.85 93.5 123.85 93.5 119.85 99.5 c 24,197,198
 117.85 104.5 117.85 104.5 109.85 106.5 c 24,199,200
 106.85 107.5 106.85 107.5 88.8496 108.5 c 24,201,-1
 73.8496 108.5 l 25,202,-1
 73.8496 136.5 l 25,203,-1
 97.8496 137.5 l 25,204,205
 105.85 138.5 105.85 138.5 112.85 143.5 c 152,-1,206
 119.85 148.5 119.85 148.5 121.85 154.5 c 24,207,208
 124.85 163.5 124.85 163.5 124.85 172.5 c 24,209,210
 124.85 186.5 124.85 186.5 119.85 193.5 c 24,211,212
 116.85 197.5 116.85 197.5 108.85 198.5 c 24,213,214
 101.85 199.5 101.85 199.5 97.8496 197.5 c 24,215,216
 87.8496 191.5 87.8496 191.5 87.8496 187.5 c 24,217,218
 87.8496 187.5 87.8496 187.5 87.8496 174.5 c 25,219,-1
 87.8496 158.5 l 25,220,-1
 15.8496 157.5 l 25,134,-1
EndSplineSet
Validated: 524289
EndChar

StartChar: A_RPN
Encoding: 233 233 122
Width: 628
VWidth: 0
Flags: HW
LayerCount: 2
Fore
SplineSet
424 0 m 25,0,-1
 423 231 l 25,1,-1
 493 231 l 25,2,-1
 535 125 l 25,3,-1
 535 231 l 25,4,-1
 603 231 l 25,5,-1
 603 0 l 25,6,-1
 535 0 l 25,7,-1
 491 98 l 25,8,-1
 491 0 l 25,9,-1
 424 0 l 25,0,-1
300 131 m 25,10,-1
 329 132 l 25,11,12
 331 135 331 135 331 175 c 24,13,14
 331 182 331 182 328 188 c 24,15,16
 326 192 326 192 321 193 c 25,17,-1
 300 193 l 25,18,-1
 300 131 l 25,10,-1
228 0 m 25,19,-1
 228 230 l 25,20,-1
 345 230 l 25,21,22
 356 230 356 230 365 224 c 24,23,24
 374 219 374 219 383 206 c 24,25,26
 390 197 390 197 392 185 c 24,27,28
 392 183 392 183 394 160 c 24,29,30
 395 149 395 149 391 134 c 24,31,32
 388 121 388 121 382 112 c 24,33,34
 377 104 377 104 371 100 c 24,35,36
 370 99 370 99 354 96 c 24,37,38
 349 95 349 95 348 96 c 25,39,-1
 303 94 l 25,40,-1
 303 0 l 25,41,-1
 228 0 l 25,19,-1
90 136 m 25,42,-1
 108 136 l 25,43,-1
 117 142 l 24,44,-1
 119 148 l 24,45,-1
 121 172 l 24,46,-1
 115 186 l 24,47,-1
 105 192 l 24,48,-1
 90 193 l 25,49,-1
 90 136 l 25,42,-1
164 123 m 0,50,51
 157 119 157 119 150 116 c 25,52,-1
 167 108 l 17,53,54
 177 103 177 103 185 96 c 24,55,56
 188 93 188 93 190 88 c 24,57,58
 190 87 190 87 190 82 c 25,59,-1
 191 0 l 25,60,-1
 113 0 l 25,61,-1
 113 96 l 25,62,63
 113 100 113 100 110 105 c 24,64,65
 108 108 108 108 105 108 c 24,66,67
 91 109 91 109 91 106 c 25,68,-1
 91 0 l 25,69,-1
 19 0 l 25,70,-1
 20 230 l 25,71,-1
 147 230 l 25,72,73
 151 230 151 230 158 226 c 152,-1,74
 165 222 165 222 171 216 c 24,75,76
 180 207 180 207 182 202 c 24,77,78
 186 191 186 191 186 178 c 24,79,80
 186 167 186 167 184 156 c 24,81,82
 182 144 182 144 176.316 134.1 c 24,83,84
 172.726 127.848 172.726 127.848 164 123 c 0,50,51
EndSplineSet
Validated: 524289
EndChar
